<?xml version="1.0" encoding="UTF-8" standalone="no"?>
<svg
   xmlns:dc="http://purl.org/dc/elements/1.1/"
   xmlns:cc="http://creativecommons.org/ns#"
   xmlns:rdf="http://www.w3.org/1999/02/22-rdf-syntax-ns#"
   xmlns:svg="http://www.w3.org/2000/svg"
   xmlns="http://www.w3.org/2000/svg"
   viewBox="0 0 1333.3333 218.50667"
   height="218.50667"
   width="1333.3333"
   xml:space="preserve"
   id="svg839"
   version="1.1"><metadata
     id="metadata845"><rdf:RDF><cc:Work
         rdf:about=""><dc:format>image/svg+xml</dc:format><dc:type
           rdf:resource="http://purl.org/dc/dcmitype/StillImage" /><dc:title></dc:title></cc:Work></rdf:RDF></metadata><defs
     id="defs843"><clipPath
       id="clipPath855"
       clipPathUnits="userSpaceOnUse"><path
         id="path853"
         d="M 0,163.88 H 1000 V 0 H 0 Z" /></clipPath></defs><g
     transform="matrix(1.3333333,0,0,-1.3333333,0,218.50667)"
     id="g847"><g
       id="g849"><g
         clip-path="url(#clipPath855)"
         id="g851"><g
           transform="translate(37.9378,2.537)"
           id="g857"><path
             id="path859"
             style="fill:#961982;fill-opacity:1;fill-rule:nonzero;stroke:none"
             d="m 0,0 h -25.292 c -6.984,0 -12.646,5.662 -12.646,12.646 V 63.23 c 0,6.984 5.662,12.646 12.646,12.646 H 12.646 V 12.646 C 12.646,5.662 6.984,0 0,0" /></g><g
           transform="translate(189.6891,2.537)"
           id="g861"><path
             id="path863"
             style="fill:#961982;fill-opacity:1;fill-rule:nonzero;stroke:none"
             d="m 0,0 h -25.292 c -6.984,0 -12.646,5.662 -12.646,12.646 v 63.23 H 0 c 6.984,0 12.646,-5.662 12.646,-12.646 V 12.646 C 12.646,5.662 6.984,0 0,0" /></g><g
           transform="translate(151.7513,78.4126)"
           id="g865"><path
             id="path867"
             style="fill:#961982;fill-opacity:1;fill-rule:nonzero;stroke:none"
             d="m 0,0 h -101.168 v 31.526 c 0,27.936 22.648,53.942 50.584,53.942 v 0 C -22.647,85.468 0,59.462 0,31.526 Z" /></g><g
           transform="translate(312.7441,62.233)"
           id="g869"><path
             id="path871"
             style="fill:#000000;fill-opacity:1;fill-rule:nonzero;stroke:none"
             d="M 0,0 H 50.477 L 25.356,70.533 Z M -47.94,-59.696 13.599,101.647 H 38.261 L 99.804,-59.696 H 73.066 L 58.547,-21.435 H -8.066 l -14.523,-38.261 z" /></g><path
           id="path873"
           style="fill:#000000;fill-opacity:1;fill-rule:nonzero;stroke:none"
           d="m 426.837,124.701 h 22.819 V 2.537 h -22.819 z m 11.292,11.958 c -3.906,0 -7.152,1.256 -9.734,3.77 -2.586,2.513 -3.877,5.793 -3.877,9.84 0,4.048 1.291,7.332 3.877,9.841 2.582,2.514 5.828,3.77 9.734,3.77 4.047,0 7.332,-1.256 9.845,-3.77 2.51,-2.509 3.766,-5.793 3.766,-9.841 0,-4.047 -1.256,-7.327 -3.766,-9.84 -2.513,-2.514 -5.798,-3.77 -9.845,-3.77" /><g
           transform="translate(525.7457,20.2863)"
           id="g875"><path
             id="path877"
             style="fill:#000000;fill-opacity:1;fill-rule:nonzero;stroke:none"
             d="m 0,0 c 6.603,0 12.596,1.416 17.974,4.263 5.379,2.841 9.642,6.949 12.793,12.333 3.151,5.374 4.727,11.831 4.727,19.358 v 17.289 c 0,6.758 -1.576,12.638 -4.727,17.633 -3.151,4.989 -7.414,8.872 -12.793,11.639 -5.378,2.766 -11.371,4.15 -17.974,4.15 -9.684,0 -17.637,-3.381 -23.86,-10.143 -6.222,-6.762 -9.332,-16.676 -9.332,-29.731 v -4.61 c 0,-13.988 3.147,-24.511 9.45,-31.578 C -17.445,3.531 -9.534,0 0,0 m -5.304,-20.286 c -10.143,0 -19.053,2.307 -26.739,6.917 -7.681,4.609 -13.674,11.559 -17.974,20.858 -4.305,9.294 -6.457,20.858 -6.457,34.692 v 4.61 c 0,13.055 2.19,24.042 6.569,32.957 4.38,8.91 10.411,15.677 18.097,20.286 7.681,4.61 16.516,6.912 26.504,6.912 9.524,0 17.787,-2.114 24.779,-6.335 6.992,-4.23 12.333,-9.876 16.019,-16.943 v 59.926 H 58.313 V -17.749 H 37.107 V 3.916 C 34.186,-2.846 28.924,-8.568 21.318,-13.257 13.712,-17.942 4.839,-20.286 -5.304,-20.286" /></g><g
           transform="translate(654.334)"
           id="g879"><path
             id="path881"
             style="fill:#000000;fill-opacity:1;fill-rule:nonzero;stroke:none"
             d="m 0,0 c -8.61,0 -16.019,1.004 -22.242,2.997 -6.227,1.997 -11.409,4.684 -15.559,8.07 -4.15,3.376 -7.377,7.259 -9.684,11.639 -2.302,4.38 -3.841,9.022 -4.61,13.942 h 23.053 c 1.07,-4.61 3.804,-8.526 8.179,-11.752 4.38,-3.226 11.334,-4.839 20.863,-4.839 10.603,0 18.054,1.571 22.354,4.722 4.301,3.146 6.458,7.104 6.458,11.869 0,2.921 -0.962,5.571 -2.884,7.953 -1.923,2.382 -5.224,4.497 -9.909,6.34 -4.689,1.843 -11.18,3.301 -19.48,4.38 -6.912,0.919 -13.135,2.265 -18.668,4.033 -5.534,1.763 -10.256,4.108 -14.176,7.029 -3.916,2.917 -6.955,6.453 -9.102,10.603 -2.153,4.15 -3.227,9.064 -3.227,14.753 0,6.452 1.801,12.328 5.416,17.632 3.607,5.299 9.023,9.599 16.249,12.905 7.222,3.306 16.211,4.957 26.969,4.957 10.138,0 18.514,-1.726 25.121,-5.187 6.607,-3.456 11.677,-7.915 15.212,-13.369 3.536,-5.454 5.839,-11.485 6.917,-18.092 H 24.202 c -1.233,5.069 -3.77,9.107 -7.606,12.103 -3.846,2.997 -9.374,4.493 -16.596,4.493 -9.529,0 -16.174,-1.496 -19.939,-4.493 -3.766,-2.996 -5.646,-6.649 -5.646,-10.949 0,-4.61 2.072,-8.338 6.222,-11.18 4.151,-2.846 12.062,-4.957 23.743,-6.34 7.372,-0.919 13.979,-2.27 19.822,-4.033 5.838,-1.768 10.79,-4.15 14.865,-7.146 4.071,-2.997 7.222,-6.645 9.449,-10.945 2.228,-4.305 3.344,-9.454 3.344,-15.447 0,-6.762 -1.923,-12.906 -5.763,-18.439 C 42.256,12.68 36.53,8.258 28.924,4.957 21.318,1.655 11.677,0 0,0" /></g><g
           transform="translate(770.0402,1.3834)"
           id="g883"><path
             id="path885"
             style="fill:#000000;fill-opacity:1;fill-rule:nonzero;stroke:none"
             d="m 0,0 c -8.914,0 -16.174,1.304 -21.782,3.92 -5.613,2.612 -9.721,6.645 -12.333,12.099 -2.612,5.454 -3.916,12.408 -3.916,20.863 V 103.49 H -56.01 v 19.827 h 17.979 v 39.18 h 22.819 v -39.18 H 16.826 V 103.49 H -15.212 V 39.879 c 0,-7.072 1.416,-12.104 4.262,-15.1 2.842,-2.997 8.258,-4.493 16.249,-4.493 4.61,0 9.219,0.23 13.829,0.69 V 1.154 C 16.211,0.849 13.252,0.577 10.256,0.347 7.259,0.117 3.836,0 0,0" /></g><g
           transform="translate(856.5031,106.7213)"
           id="g887"><path
             id="path889"
             style="fill:#000000;fill-opacity:1;fill-rule:nonzero;stroke:none"
             d="m 0,0 c -5.993,0 -11.639,-1.079 -16.943,-3.226 -5.299,-2.157 -9.604,-5.576 -12.905,-10.261 -3.306,-4.689 -5.036,-10.795 -5.186,-18.321 h 68.685 c -0.155,7.986 -1.768,14.288 -4.839,18.898 -3.077,4.61 -7.109,7.911 -12.104,9.913 C 11.714,-1.004 6.143,0 0,0 m 1.154,-106.721 c -10.603,0 -20.399,2.269 -29.389,6.799 -8.989,4.53 -16.249,11.41 -21.782,20.629 -5.534,9.219 -8.3,20.896 -8.3,35.039 v 4.61 c 0,13.519 2.654,24.736 7.953,33.651 5.304,8.91 12.291,15.559 20.976,19.935 8.68,4.379 18.091,6.569 28.234,6.569 18.284,0 32.385,-4.994 42.294,-14.982 9.913,-9.989 14.87,-24.122 14.87,-42.411 v -12.905 h -91.044 c 0.15,-8.76 1.992,-15.827 5.528,-21.206 3.536,-5.383 8.071,-9.261 13.6,-11.639 5.533,-2.387 11.217,-3.573 17.06,-3.573 8.909,0 15.629,1.458 20.164,4.38 4.535,2.916 7.723,6.832 9.566,11.751 h 22.819 c -2.457,-11.981 -8.492,-21.088 -18.092,-27.311 -9.604,-6.223 -21.093,-9.336 -34.457,-9.336" /></g><g
           transform="translate(932.0037,2.537)"
           id="g891"><path
             id="path893"
             style="fill:#000000;fill-opacity:1;fill-rule:nonzero;stroke:none"
             d="m 0,0 v 122.164 h 21.205 v -21.9 c 1.848,4.61 4.301,8.718 7.377,12.333 3.071,3.606 6.875,6.528 11.409,8.76 4.53,2.223 9.642,3.339 15.33,3.339 3.531,0 6.26,-0.155 8.183,-0.46 1.918,-0.309 3.418,-0.694 4.492,-1.153 v -20.976 c -2.302,0.769 -4.492,1.304 -6.57,1.613 -2.072,0.31 -4.722,0.464 -7.948,0.464 -6.303,0 -11.756,-1.463 -16.366,-4.38 -4.61,-2.921 -8.146,-6.841 -10.603,-11.756 -2.462,-4.919 -3.69,-10.453 -3.69,-16.596 L 22.819,0 Z" /></g></g></g></g></svg>