<?xml version="1.0" encoding="UTF-8" standalone="no"?>
<svg
   xmlns:dc="http://purl.org/dc/elements/1.1/"
   xmlns:cc="http://creativecommons.org/ns#"
   xmlns:rdf="http://www.w3.org/1999/02/22-rdf-syntax-ns#"
   xmlns:svg="http://www.w3.org/2000/svg"
   xmlns="http://www.w3.org/2000/svg"
   viewBox="0 0 933.33331 1034.384"
   height="1034.384"
   width="933.33331"
   xml:space="preserve"
   id="svg3666"
   version="1.1"><metadata
     id="metadata3672"><rdf:RDF><cc:Work
         rdf:about=""><dc:format>image/svg+xml</dc:format><dc:type
           rdf:resource="http://purl.org/dc/dcmitype/StillImage" /><dc:title></dc:title></cc:Work></rdf:RDF></metadata><defs
     id="defs3670"><clipPath
       id="clipPath3682"
       clipPathUnits="userSpaceOnUse"><path
         id="path3680"
         d="M 0,775.788 H 700 V 0 H 0 Z" /></clipPath></defs><g
     transform="matrix(1.3333333,0,0,-1.3333333,0,1034.384)"
     id="g3674"><g
       id="g3676"><g
         clip-path="url(#clipPath3682)"
         id="g3678"><g
           transform="translate(424.2962,136.4072)"
           id="g3684"><path
             id="path3686"
             style="fill:#961982;fill-opacity:1;fill-rule:nonzero;stroke:none"
             d="m 0,0 c -1.028,0.637 -1.959,0.251 -2.313,0.056 -0.352,-0.196 -1.171,-0.783 -1.171,-1.994 0,-0.896 -0.174,-1.747 -0.476,-2.537 H 7.211 Z" /></g><g
           transform="translate(700.0001,193.0759)"
           id="g3688"><path
             id="path3690"
             style="fill:#961982;fill-opacity:1;fill-rule:nonzero;stroke:none"
             d="m 0,0 v 346.942 c 0,29.995 -11.684,58.197 -32.897,79.413 -13.397,13.397 -30.05,23.249 -48.157,28.488 -10.093,2.924 -20.608,4.406 -31.256,4.406 -0.135,0 -0.267,-0.005 -0.402,-0.005 -0.1,0 -0.195,0.005 -0.293,0.005 -61.927,0 -112.31,-50.38 -112.31,-112.307 V 2.405 h -65.175 l -74.62,139.616 c 1.533,-0.584 3.09,-0.935 4.668,-0.935 2.841,0 5.754,1.118 8.715,3.986 8.702,8.432 3.563,14.716 -1.879,21.369 -4.01,4.898 -8.552,10.452 -10.64,18.779 -4.684,18.654 -5.477,39.368 -6.244,59.402 -0.452,11.808 -0.898,23.267 -2.128,33.801 26.323,3.836 49.109,12.823 64.724,25.662 13.616,11.195 23.856,25.474 30.676,42.709 1.269,2.874 1.774,4.69 1.83,4.896 0.01,0.04 0.013,0.079 0.021,0.119 5.514,15.913 8.3,34.179 8.3,54.723 0,0.259 -0.016,0.516 -0.027,0.775 0.008,0.082 0.027,0.164 0.027,0.251 0,30.653 -5.86,50.555 -17.415,59.148 -5.406,4.021 -10.716,4.478 -13.909,4.264 l -0.629,16.046 c -0.061,1.691 -0.595,3.28 -1.523,4.636 11.287,2.617 21.039,9.265 27.618,18.887 3.87,5.66 6.379,11.972 7.455,18.544 4.824,0.259 9.365,0.56 13.536,0.904 22.622,1.863 26.762,3.917 26.762,7.287 0,3.371 -4.14,5.425 -26.762,7.286 -4.253,0.351 -8.892,0.658 -13.819,0.922 -0.484,2.461 -1.163,4.853 -2.017,7.164 9.191,-0.463 17.327,-1.073 23.819,-1.803 0.093,-0.011 0.183,-0.016 0.273,-0.016 1.213,0 2.26,0.909 2.397,2.144 0.151,1.324 -0.803,2.522 -2.128,2.67 -7.14,0.806 -16.235,1.464 -26.518,1.943 -3.46,6.791 -8.578,12.648 -15.044,17.068 -10.172,6.952 -22.44,9.529 -34.552,7.253 -12.109,-2.275 -22.606,-9.13 -29.561,-19.302 -3.581,-5.239 -5.992,-11.038 -7.187,-17.084 -5.205,-0.269 -10.098,-0.589 -14.565,-0.959 -22.622,-1.861 -26.762,-3.915 -26.762,-7.286 0,-3.37 4.14,-5.424 26.762,-7.287 4.401,-0.362 9.217,-0.677 14.338,-0.947 0.055,-0.327 0.098,-0.658 0.161,-0.986 0.354,-1.892 0.835,-3.737 1.409,-5.546 -9.931,0.503 -18.602,1.171 -25.337,1.98 -1.311,0.159 -2.527,-0.785 -2.686,-2.109 -0.158,-1.324 0.785,-2.527 2.11,-2.686 7.306,-0.877 16.857,-1.594 27.787,-2.109 3.439,-7.65 8.916,-14.238 16.019,-19.091 6.442,-4.406 13.73,-7.047 21.282,-7.819 -0.6,-1.205 -0.933,-2.569 -0.933,-4.018 l 1.105,-80.145 c -0.003,-32.323 -8.932,-56.106 -25.824,-68.778 -10.832,-8.129 -26.037,-12.728 -45.461,-13.799 -4.261,8.139 -9.725,14.735 -18.363,16.818 v 1.205 c 6.307,1.671 11.66,5.107 15.757,10.18 7.232,8.953 10.085,22.749 7.618,36.359 -0.013,0.172 -0.045,0.339 -0.092,0.5 -0.08,0.415 -0.148,0.83 -0.235,1.245 l -2.031,9.437 c 1.69,15.765 -1.062,29.009 -8.244,39.469 -8.607,12.529 -21.629,18.337 -31.184,21.014 -4.214,1.296 -8.079,2.054 -11.103,2.488 -7.266,1.041 -10.491,0.634 -14.229,0.161 -2.442,-0.309 -5.213,-0.658 -9.746,-0.658 -3.114,0 -5.728,0.188 -8.007,0.51 -5.012,0.714 -8.409,2.07 -11.938,3.484 -0.563,0.225 -1.134,0.447 -1.705,0.672 -0.243,0.095 -0.478,0.19 -0.724,0.285 h -0.002 c -5.287,2.025 -10.59,3.376 -19.284,3.376 -10.878,0 -16.392,-2.205 -21.726,-4.336 -5.134,-2.053 -9.984,-3.991 -19.931,-3.991 -9.953,0 -14.801,1.938 -19.934,3.991 -5.332,2.131 -10.843,4.336 -21.716,4.336 -10.88,0 -16.394,-2.205 -21.726,-4.336 -5.133,-2.053 -9.984,-3.991 -19.933,-3.991 -1.637,0 -3.149,0.05 -4.624,0.159 -0.88,0.06 -1.773,0.089 -2.651,0.089 -0.856,0 -1.702,-0.039 -2.543,-0.097 -20.55,-0.082 -42.498,-18.61 -42.498,-46.162 0,-30.933 24.314,-42.958 31.763,-45.908 5.136,-2.038 10.571,-3.87 20.563,-3.87 10.88,0 16.392,2.205 21.726,4.338 5.134,2.051 9.982,3.989 19.931,3.989 9.945,0 14.793,-1.938 19.924,-3.989 5.331,-2.133 10.845,-4.338 21.726,-4.338 10.88,0 16.394,2.205 21.726,4.338 5.133,2.051 9.984,3.989 19.934,3.989 5.194,0 18.664,-4.874 28.503,-8.435 5.02,-1.816 9.44,-3.415 12.239,-4.203 2.794,-5.303 6.72,-9.939 11.573,-13.627 l 0.01,-0.24 v -6.646 h -0.415 -0.005 c -0.256,0 -0.51,-0.039 -0.751,-0.119 -12.849,-4.208 -20.266,-8.768 -25.236,-14.285 h -58.527 c -17.751,0 -32.192,-14.443 -32.192,-32.193 V 191.503 c -7.568,-4.967 -18.495,-4.877 -18.635,-4.872 h -9.284 c -3.994,0 -7.246,-3.251 -7.246,-7.245 0,-3.994 3.252,-7.246 7.246,-7.246 h 0.634 c -0.301,-0.378 -0.568,-0.788 -0.793,-1.226 -0.88,-1.724 -1.038,-3.685 -0.444,-5.528 0.598,-1.842 1.874,-3.341 3.598,-4.221 1.036,-0.529 2.16,-0.798 3.288,-0.798 0.751,0 1.504,0.119 2.239,0.356 l 3.112,1.005 c -0.281,-0.568 -0.495,-1.174 -0.619,-1.813 -0.375,-1.898 0.011,-3.828 1.089,-5.435 1.079,-1.607 2.717,-2.699 4.615,-3.075 0.474,-0.092 0.947,-0.137 1.417,-0.137 1.422,0 2.816,0.42 4.021,1.229 l 6.902,4.631 c 11.795,7.909 20.92,15.168 27.573,21.972 4.465,1.983 8.023,4.396 10.735,7.267 7.861,8.329 7.24,19.117 6.693,28.636 -0.143,2.511 -0.28,4.88 -0.28,7.203 v 50.822 1.337 2.29 l 27.504,-0.508 c 0.754,-0.026 1.531,-0.034 2.308,-0.042 -1.105,-8.345 -3.511,-16.611 -7.164,-24.441 -0.01,-0.024 -0.061,-0.13 -0.069,-0.153 -1.485,-3.357 -2.934,-5.853 -4.335,-8.269 -3.373,-5.813 -6.04,-10.404 -6.04,-21.639 0,-9.397 3.45,-14.316 6.49,-18.657 2.886,-4.121 5.614,-8.012 5.614,-15.884 0,-6.78 -4.618,-12.63 -9.08,-18.289 -5.702,-7.225 -12.165,-15.417 -3.701,-23.677 8.467,-8.258 16.569,-2.094 23.741,3.558 l 0.703,-38.147 h -87.576 c -0.193,0 -0.375,-0.029 -0.555,-0.071 h -19.545 -38.459 c -3.92,0 -7.11,-3.191 -7.11,-7.111 v -22.67 c 0,-3.923 3.19,-7.111 7.11,-7.111 1.211,0 1.798,-0.819 1.993,-1.171 0.196,-0.354 0.585,-1.284 -0.055,-2.313 l -7.978,-12.854 c -0.7,-1.126 -1.07,-2.422 -1.07,-3.749 V 18.081 c 0,-3.27 2.125,-6.032 5.289,-6.873 0.626,-0.167 1.256,-0.246 1.874,-0.246 2.498,0 4.824,1.317 6.122,3.593 l 33.764,59.124 c 0.185,0.325 0.336,0.669 0.466,1.015 h 15.738 v -31.52 c 0,-1.332 1.081,-2.413 2.416,-2.413 h 3.934 111.146 c 19.297,0 36.04,11.102 44.211,27.248 l 32.812,-66.738 c -0.232,-0.372 -0.372,-0.808 -0.372,-1.282 v -61.133 h -50.214 c -1.335,0 -2.416,-1.081 -2.416,-2.416 v -61.134 h -50.211 c -1.335,0 -2.416,-1.084 -2.416,-2.416 v -61.136 h -133.185 c -1.335,0 -2.416,-1.082 -2.416,-2.416 0,-1.333 1.081,-2.414 2.416,-2.414 h 135.601 215.891 263.715 c 1.335,0 2.416,1.081 2.416,2.414 L 0,-0.011 Z m -268.547,-188.246 h -105.699 v 58.72 h 105.699 z M -455.832,45.591 c -3.259,0 -6.394,0.052 -9.426,0.174 l -59.91,59.91 h 13.159 l 59.915,-59.915 c -1.234,-0.103 -2.477,-0.169 -3.738,-0.169 M -630.055,15.879 c -0.396,0.106 -1.694,0.576 -1.694,2.202 v 35.376 c 0,0.426 0.119,0.841 0.341,1.203 l 7.98,12.855 c 1.38,2.223 1.446,4.917 0.172,7.206 -1.272,2.286 -3.595,3.653 -6.215,3.653 -1.255,0 -2.278,1.023 -2.278,2.281 v 22.67 c 0,1.255 1.023,2.281 2.278,2.281 h 36.043 v -28.4 c 0,-0.397 -0.103,-0.788 -0.299,-1.132 l -4.224,-7.396 v 14.993 c 0,1.335 -1.081,2.416 -2.416,2.416 -1.335,0 -2.413,-1.081 -2.413,-2.416 V 60.219 l -3.476,-6.088 v 14.484 c 0,1.334 -1.084,2.416 -2.416,2.416 -1.335,0 -2.417,-1.082 -2.417,-2.416 V 45.673 l -16.399,-28.721 c -0.809,-1.414 -2.168,-1.179 -2.567,-1.073 m 54.623,140.266 c -0.632,0.124 -1.179,0.489 -1.538,1.026 -0.36,0.534 -0.489,1.179 -0.365,1.81 0.124,0.632 0.489,1.179 1.026,1.539 l 7.673,5.149 c 0.085,0.053 0.45,0.294 1.018,0.701 7.116,2.572 13.331,5.191 18.678,7.885 -5.025,-4.169 -10.946,-8.533 -17.779,-13.117 l -6.902,-4.628 c -0.534,-0.36 -1.179,-0.489 -1.811,-0.365 m -13.661,10.73 c -0.198,0.61 -0.145,1.266 0.148,1.839 0.296,0.574 0.793,1.002 1.409,1.198 l 6.984,2.26 c 6.101,0.087 11.702,0.357 16.815,0.825 -4.391,-1.729 -9.192,-3.434 -14.407,-5.121 l -7.909,-2.556 c -1.269,-0.415 -2.63,0.288 -3.04,1.555 m -6.41,12.511 c 0,1.332 1.084,2.413 2.416,2.413 l 9.244,0.003 c 0.653,-0.019 16.04,-0.169 24.805,8.451 3.897,3.833 5.874,8.765 5.874,14.66 0,1.335 -1.081,2.416 -2.416,2.416 -1.332,0 -2.413,-1.081 -2.413,-2.416 0,-3.365 -0.772,-6.225 -2.345,-8.665 v 98.694 c 0,15.088 12.276,27.361 27.362,27.361 h 63.75 c 8.2,0 14.869,-6.672 14.869,-14.871 0,-19.567 -18.546,-26.508 -34.385,-26.508 l -2.868,0.053 c -18.707,0.697 -28.522,8.162 -28.617,8.236 -0.73,0.571 -1.721,0.68 -2.549,0.275 -0.835,-0.404 -1.361,-1.247 -1.361,-2.173 v -8.202 -4.748 c 0,-2.648 -0.003,-5.191 -0.008,-7.639 -0.079,-28.083 -1.255,-66.159 -17.75,-81.66 -0.946,-0.89 -1.93,-1.694 -2.953,-2.413 -9.26,-3.299 -18.136,-4.533 -18.229,-4.547 -0.285,-0.039 -0.547,-0.129 -0.787,-0.256 -6.21,-0.584 -13.167,-0.878 -20.912,-0.878 h -8.311 c -1.332,0 -2.416,1.081 -2.416,2.414 m 152.294,159.737 v 6.159 c 8.374,-4.448 17.956,-4.499 28.059,-4.499 h 0.272 0.27 c 1.557,0 3.072,0.098 4.549,0.27 V 328.33 c 0,-6.164 -5.014,-11.179 -11.181,-11.179 -12.115,0 -21.969,9.858 -21.969,21.972 m -10.162,25.321 c 1.304,0.28 2.134,1.565 1.853,2.868 -0.28,1.306 -1.57,2.134 -2.87,1.853 -4.904,-1.054 -9.749,2.078 -10.804,6.982 -0.539,2.508 0.024,5.001 1.356,6.981 0.88,0.954 1.872,1.903 2.736,2.643 0.87,0.539 1.835,0.952 2.889,1.179 0.037,0.008 0.072,0.024 0.109,0.034 0.835,-0.05 1.691,-0.084 2.582,-0.084 20.717,0 38.665,14.224 43.516,34.123 9.228,-1.76 19.011,-11.327 21.173,-13.542 l 3.273,-15.226 c -0.016,0.014 -0.032,0.024 -0.05,0.037 -1.06,0.812 -2.575,0.611 -3.387,-0.449 -0.811,-1.057 -0.61,-2.575 0.447,-3.386 1.359,-1.039 2.755,-1.766 4.174,-2.189 1.806,-11.803 -0.719,-23.502 -6.857,-31.097 -5.123,-6.341 -12.315,-9.558 -21.377,-9.558 h -0.27 -0.267 c -10.269,0 -19.965,0.042 -27.655,5.009 -5.334,3.447 -9.585,8.107 -12.49,13.563 0.637,0.045 1.277,0.122 1.919,0.259 m 141.517,122.249 c -0.005,2.099 1.567,3.815 3.658,3.997 1.103,0.095 2.171,-0.256 3.001,-0.991 0.827,-0.735 1.308,-1.75 1.348,-2.866 l 0.735,-18.747 c 0.01,-0.288 0.087,-0.557 0.193,-0.816 -0.127,-0.297 -0.196,-0.622 -0.193,-0.965 l 0.076,-9.577 c -1.152,0.846 -2.262,1.324 -3.021,1.57 -1.851,0.605 -3.754,0.661 -5.411,0.267 z m -9.688,34.861 c -9.952,0.098 -19.479,0.347 -28.2,0.717 -0.772,2.104 -1.388,4.282 -1.816,6.526 12.189,-0.547 25.908,-0.841 40.174,-0.841 14.573,0 28.57,0.307 40.957,0.878 -1.049,-5.509 -3.225,-10.798 -6.487,-15.567 -6.225,-9.106 -15.622,-15.244 -26.465,-17.28 -1.179,-0.222 -2.361,-0.383 -3.54,-0.502 -0.555,0.056 -1.121,0.066 -1.692,0.016 -0.438,-0.037 -0.861,-0.114 -1.276,-0.212 -8.652,-0.251 -17.14,2.213 -24.423,7.19 -5.659,3.87 -10.169,8.964 -13.262,14.867 8.121,-0.32 16.881,-0.531 25.98,-0.624 h 0.026 c 1.322,0 2.4,1.065 2.414,2.392 0.013,1.333 -1.058,2.424 -2.39,2.44 m -23.553,38.324 c 6.225,9.106 15.623,15.245 26.466,17.28 2.572,0.484 5.149,0.722 7.711,0.722 8.234,0 16.275,-2.469 23.219,-7.217 9.107,-6.225 15.245,-15.622 17.28,-26.463 v -0.002 c 0.661,-3.506 0.857,-7.027 0.621,-10.497 -11.67,-0.558 -25.627,-0.912 -41.586,-0.912 -15.609,0 -29.296,0.338 -40.808,0.875 -0.672,9.27 1.774,18.429 7.097,26.214 m 51.068,-119.883 -3.963,0.153 -0.134,6.21 v 0.018 l -0.159,19.767 c 1.224,0.104 3.016,0.085 5.097,-0.465 z m -16.722,-33.463 c 0,0.019 0.003,0.037 0.003,0.056 h -0.006 l -0.642,46.748 c 0.029,0.032 0.063,0.056 0.09,0.09 0.277,0.338 1.803,0.915 3.751,0.28 1.58,-0.515 4.285,-2.175 4.602,-7.404 l 0.346,-15.971 c 0.024,-1.1 0.798,-2.046 1.869,-2.3 0.497,-0.119 12.175,-3.048 12.398,-17.015 0.021,-1.32 1.097,-2.377 2.413,-2.377 h 0.04 c 1.334,0.021 2.397,1.121 2.379,2.453 -0.225,14.116 -10.119,19.426 -14.306,21.044 l -0.069,3.175 8.163,-0.315 c 0.15,-0.008 0.298,-0.01 0.449,-0.01 4.076,0 7.856,2.146 9.942,5.675 0.679,1.147 0.301,2.63 -0.846,3.31 -1.15,0.676 -2.63,0.298 -3.31,-0.852 -1.205,-2.032 -3.357,-3.267 -5.717,-3.288 l 0.78,23.725 c 0.349,-0.225 0.7,-0.46 1.054,-0.725 7.056,-5.247 15.467,-19.098 15.467,-55.273 0,-0.021 0.005,-0.04 0.008,-0.058 l -0.072,-0.003 c 0.027,-0.322 0.064,-0.645 0.064,-0.965 0,-20.372 -2.8,-38.406 -8.351,-54.02 -1.25,-3.114 -2.595,-6.088 -4.028,-8.916 -2.924,-5.136 -7.656,-11.79 -15.028,-18.398 -21.736,-19.493 -51.911,-25.937 -76.967,-27.452 -0.69,2.406 -1.468,4.727 -2.361,6.934 -0.568,1.406 -1.131,2.826 -1.692,4.25 -1.377,3.479 -2.765,6.987 -4.279,10.341 19.489,1.341 34.911,6.202 46.098,14.597 18.16,13.624 27.758,38.752 27.758,72.664 m 0.518,-531.226 v 58.72 h 94.311 v -58.72 h -50.211 z m -166.975,262.37 c -0.362,1.776 -0.695,3.645 -0.986,5.606 2.218,-1.557 4.404,-2.199 6.553,-2.199 1.219,0 2.421,0.214 3.613,0.576 l 56.582,-56.534 c -0.428,-3.698 -1.306,-7.259 -2.582,-10.626 z m 13.857,6.138 c 2.432,1.456 4.787,3.309 7.05,5.091 0.187,0.148 0.38,0.299 0.568,0.449 l 44.594,-44.594 V 91.646 Z m 38.997,-1.14 c 3.339,0.68 6.017,1.964 8.314,3.495 1.361,-0.917 2.966,-1.816 4.901,-2.532 V 129.74 Z m -24.699,8.047 c 4.311,-3.873 9.191,-8.234 18.3,-8.541 l 19.614,-19.202 v -11.387 l -40.719,40.719 c 0.185,0.132 0.367,0.264 0.552,0.396 0.749,-0.634 1.491,-1.301 2.253,-1.985 M -328.655,2.405 h -13.278 l -37.965,37.962 -2.762,15.998 z m 6.833,0 -62.265,62.213 -2.734,15.826 78.039,-78.039 z m -56.648,29.704 29.704,-29.704 h -13.159 l -13.796,13.796 z m 89.153,-59.196 c -1.332,0 -2.413,-1.081 -2.413,-2.416 0,-1.335 1.081,-2.416 2.413,-2.416 h 23.455 l 6.085,-3.473 h -14.483 c -1.332,0 -2.416,-1.084 -2.416,-2.416 0,-1.335 1.084,-2.416 2.416,-2.416 h 22.942 l 28.723,-16.403 c 1.415,-0.806 1.179,-2.167 1.074,-2.564 -0.106,-0.399 -0.577,-1.697 -2.205,-1.697 H -259.1 c -0.425,0 -0.843,0.119 -1.203,0.344 l -12.854,7.98 c -1.161,0.719 -2.451,1.084 -3.746,1.084 -1.182,0 -2.369,-0.304 -3.46,-0.912 -2.29,-1.274 -3.656,-3.595 -3.656,-6.215 0,-1.255 -1.023,-2.281 -2.279,-2.281 h -22.672 c -1.256,0 -2.279,1.026 -2.279,2.281 v 33.762 c 0,1.258 1.023,2.281 2.279,2.281 h 26.122 c 0.394,0 0.785,-0.103 1.131,-0.299 l 7.396,-4.224 z m 10.13,-31.52 c 0,1.211 0.819,1.798 1.171,1.994 0.352,0.195 1.285,0.581 2.313,-0.056 l 7.208,-4.475 h -11.17 c 0.304,0.79 0.478,1.644 0.478,2.537 m -89.569,61.012 h -4.581 l -0.957,5.538 z m 209.436,211.464 c 2.992,-0.645 5.316,-1.57 7.706,-2.527 4.604,-1.84 9.365,-3.743 18.762,-3.743 9.403,0 14.166,1.903 18.774,3.745 4.375,1.748 8.506,3.4 16.978,3.4 7.79,0 11.851,-1.362 15.993,-3.006 7.343,-2.905 24.425,-12.157 24.425,-35.226 0,-21.015 -16.598,-35.133 -32.102,-35.133 -0.058,0 -0.113,0 -0.171,-0.005 -0.725,-0.05 -1.325,-0.074 -1.893,-0.074 -0.653,0 -1.314,0.021 -1.956,0.066 -1.372,0.1 -2.776,0.148 -4.288,0.148 -9.402,0 -14.166,-1.903 -18.77,-3.746 -4.375,-1.75 -8.507,-3.402 -16.982,-3.402 -8.466,0 -12.598,1.652 -16.97,3.402 -2.781,1.11 -5.625,2.244 -9.506,2.969 z M -222.912,-2.424 c 0.003,0 0.008,-0.003 0.013,-0.003 h 0.696 58.083 l 0.795,-58.717 h -50.179 -3.603 c 0.09,0.235 0.188,0.465 0.254,0.713 0.838,3.162 -0.505,6.379 -3.347,7.999 l -59.122,33.762 c -0.182,0.105 -0.375,0.187 -0.566,0.277 -0.018,0.04 -0.029,0.088 -0.05,0.127 l -8.919,15.842 z m -79.04,4.829 -86.296,86.297 -2.469,14.29 85.963,-84.145 8.787,-16.442 z m -90.171,108.723 -3.051,17.65 68.02,-68.017 14.821,-27.737 z m -4.478,25.908 -0.954,5.517 c 2.931,0.518 5.355,1.496 7.462,2.709 l 37.274,-36.484 17.822,-33.346 z m 10.542,11.039 c 1.073,0.872 2.08,1.771 3.053,2.646 0.764,0.69 1.509,1.343 2.26,1.977 1.684,-1.2 3.331,-2.495 4.964,-3.785 0.851,-0.672 1.716,-1.354 2.591,-2.02 l 12.794,-23.938 z m -165.931,-42.4 54.298,-54.298 c -20.061,7.216 -38.3,22.693 -64.208,54.298 z m 19.989,0 59.468,-59.469 c -5.437,0.46 -10.563,1.206 -15.503,2.343 l -57.124,57.126 z m 26.823,0 h 13.161 l 55.628,-55.628 c -3.077,-1.493 -6.353,-2.633 -9.77,-3.391 z m 19.992,0 h 4.311 8.85 l 47.37,-47.37 c -2.237,-2.183 -4.7,-4.129 -7.354,-5.807 z m 19.124,0.867 c 0.125,0.151 0.244,0.312 0.331,0.492 0.404,0.83 0.301,1.821 -0.27,2.548 -0.034,0.042 -3.394,4.39 -6.711,12.767 -0.706,1.785 -1.444,3.844 -2.16,6.165 l 58.731,-58.734 c -1.467,-2.831 -3.217,-5.49 -5.231,-7.927 z m 91.71,-109.333 h 50.481 l 9.667,-17.256 c -1.161,-1.267 -1.877,-2.948 -1.877,-4.798 v -33.762 c 0,-0.893 0.175,-1.747 0.479,-2.537 h -58.75 z m 369.52,349.733 v -56.063 c -8.808,-0.299 -13.64,-2.223 -18.314,-4.092 -4.874,-1.948 -9.479,-3.791 -18.918,-3.791 -9.448,0 -14.053,1.843 -18.93,3.791 -5.086,2.032 -10.343,4.137 -20.719,4.137 -1.673,0 -3.222,-0.056 -4.729,-0.164 -0.729,-0.05 -1.467,-0.077 -2.196,-0.077 -0.632,0 -1.306,0.029 -2.118,0.085 -0.055,0.005 -0.113,0.008 -0.169,0.008 -17.322,0 -35.865,15.759 -35.865,39.222 0,25.744 19.061,36.067 27.256,39.313 4.615,1.832 9.143,3.349 17.829,3.349 9.448,0 14.053,-1.84 18.93,-3.791 5.086,-2.032 10.343,-4.134 20.719,-4.134 10.467,0 14.834,2.139 19.058,4.208 3.632,1.779 7.085,3.466 15.089,3.691 2.027,-8.311 3.077,-16.921 3.077,-25.692 m 0,-310.796 c -2.831,0.243 -4.523,0.917 -6.418,1.676 -2.482,0.991 -5.295,2.117 -10.624,2.117 -5.329,0 -8.142,-1.126 -10.624,-2.117 -2.382,-0.952 -4.435,-1.774 -8.837,-1.774 -4.044,0 -6.151,0.706 -8.297,1.56 -3.788,1.498 -12.601,6.267 -12.601,18.149 0,10.782 8.466,18.025 16.373,18.025 0.058,0 0.113,0 0.169,0.006 0.642,0.045 1.3,0.047 1.94,0.002 0.775,-0.055 1.565,-0.082 2.414,-0.082 5.329,0 8.144,1.126 10.626,2.118 2.379,0.951 4.433,1.773 8.834,1.773 4.396,0 6.45,-0.822 8.829,-1.773 2.078,-0.83 4.393,-1.753 8.216,-2.03 z m -4.364,341.269 c -8.25,-0.386 -12.152,-2.286 -15.927,-4.134 -3.901,-1.911 -7.586,-3.716 -16.933,-3.716 -9.445,0 -14.053,1.842 -18.927,3.79 -5.086,2.033 -10.344,4.137 -20.722,4.137 -9.526,0 -14.713,-1.747 -19.608,-3.693 -7.111,-2.812 -30.307,-14.287 -30.307,-43.801 0,-26.312 20.981,-44.002 40.608,-44.055 0.891,-0.06 1.65,-0.089 2.374,-0.089 0.84,0 1.692,0.029 2.537,0.089 1.399,0.101 2.832,0.149 4.388,0.149 9.448,0 14.053,-1.84 18.927,-3.791 5.086,-2.033 10.344,-4.134 20.722,-4.134 10.37,0 15.627,2.101 20.711,4.134 4.441,1.776 8.667,3.457 16.521,3.743 V 78.636 c -2.834,0.243 -4.528,0.917 -6.424,1.675 -2.482,0.992 -5.294,2.118 -10.621,2.118 -5.329,0 -8.144,-1.126 -10.626,-2.118 -2.382,-0.951 -4.436,-1.773 -8.834,-1.773 -0.733,0 -1.407,0.024 -2.073,0.071 -0.859,0.061 -1.702,0.058 -2.537,0.003 -10.214,-0.053 -21.116,-9.223 -21.116,-22.855 0,-15.26 11.98,-21.187 15.649,-22.641 2.419,-0.959 5.189,-1.898 10.079,-1.898 5.332,0 8.147,1.124 10.629,2.118 2.379,0.951 4.433,1.771 8.832,1.771 4.398,0 6.452,-0.82 8.829,-1.771 2.077,-0.83 4.393,-1.753 8.213,-2.03 V 2.405 H -159.32 v 133.404 c 2.995,-0.645 5.319,-1.57 7.711,-2.527 4.607,-1.842 9.368,-3.745 18.765,-3.745 9.403,0 14.166,1.903 18.774,3.745 4.375,1.75 8.506,3.402 16.978,3.402 1.396,0 2.683,-0.044 3.944,-0.134 1.422,-0.101 2.718,-0.122 4.452,0 17.811,0.052 36.846,16.098 36.846,39.962 0,26.762 -21.034,37.166 -27.478,39.717 -4.438,1.764 -9.138,3.347 -17.772,3.347 -9.402,0 -14.166,-1.906 -18.773,-3.748 -4.375,-1.748 -8.504,-3.4 -16.979,-3.4 -8.466,0 -12.595,1.652 -16.97,3.4 -2.778,1.112 -5.623,2.244 -9.498,2.968 v 123.856 c 0,24.734 7.608,48.171 22.006,67.774 13.91,18.94 33.622,32.997 55.509,39.593 17.097,-5.054 32.818,-14.404 45.493,-27.079 12.899,-12.9 22.109,-28.501 27.116,-45.525 m -223.777,159.859 c -5.316,-1.194 -16.259,-2.445 -31.963,-3.322 0.118,2.204 0.084,4.425 -0.114,6.65 15.768,-0.877 26.748,-2.13 32.077,-3.328 m -156.821,0 c 5.413,1.216 16.656,2.493 32.836,3.371 -0.193,-2.229 -0.225,-4.478 -0.09,-6.738 -16.133,0.88 -27.343,2.151 -32.746,3.367 m -37.185,-603.248 h 47.798 v -58.72 h -47.798 z m -52.63,-63.552 h 36.41 v -58.72 h -36.41 z" /></g><g
           transform="translate(313.7586,742.94)"
           id="g3692"><path
             id="path3694"
             style="fill:#961982;fill-opacity:1;fill-rule:nonzero;stroke:none"
             d="M 0,0 C 0.13,0 0.259,0.011 0.391,0.032 4.742,0.743 10.55,1.38 17.653,1.93 18.985,2.033 19.979,3.196 19.876,4.525 19.773,5.855 18.617,6.841 17.28,6.746 10.042,6.186 4.097,5.53 -0.386,4.8 -1.702,4.584 -2.596,3.344 -2.382,2.028 -2.189,0.843 -1.163,0 0,0" /></g><g
           transform="translate(68.5035,449.515)"
           id="g3696"><path
             id="path3698"
             style="fill:#961982;fill-opacity:1;fill-rule:nonzero;stroke:none"
             d="M 0,0 C 6.302,0 11.43,5.128 11.43,11.43 11.43,17.732 6.302,22.86 0,22.86 h -57.071 c -6.304,0 -11.432,-5.128 -11.432,-11.43 0,-6.302 5.128,-11.43 11.432,-11.43 z" /></g><g
           transform="translate(40.4095,423.3948)"
           id="g3700"><path
             id="path3702"
             style="fill:#961982;fill-opacity:1;fill-rule:nonzero;stroke:none"
             d="m 0,0 c 0,-6.302 5.128,-11.43 11.43,-11.43 h 30.735 c 6.304,0 11.432,5.128 11.432,11.43 0,6.302 -5.128,11.43 -11.432,11.43 H 11.43 C 5.128,11.43 0,6.302 0,0" /></g><g
           transform="translate(69.623,385.8439)"
           id="g3704"><path
             id="path3706"
             style="fill:#961982;fill-opacity:1;fill-rule:nonzero;stroke:none"
             d="m 0,0 c 0,6.302 -5.128,11.43 -11.43,11.43 h -40.021 c -6.302,0 -11.43,-5.128 -11.43,-11.43 0,-6.302 5.128,-11.43 11.43,-11.43 H -11.43 C -5.128,-11.43 0,-6.302 0,0" /></g><g
           transform="translate(301.9884,588.1985)"
           id="g3708"><path
             id="path3710"
             style="fill:#961982;fill-opacity:1;fill-rule:nonzero;stroke:none"
             d="m 0,0 c -0.497,1.24 -1.901,1.842 -3.14,1.345 -1.237,-0.494 -1.84,-1.9 -1.346,-3.137 l 6.334,-15.839 h -7.962 c -1.335,0 -2.416,-1.082 -2.416,-2.416 0,-1.335 1.081,-2.417 2.416,-2.417 h 11.53 c 0.801,0 1.549,0.4 1.999,1.063 0.449,0.664 0.539,1.507 0.243,2.25 z" /></g><g
           transform="translate(275.4088,581.5333)"
           id="g3712"><path
             id="path3714"
             style="fill:#961982;fill-opacity:1;fill-rule:nonzero;stroke:none"
             d="m 0,0 c 2.522,-1.935 4.94,-2.63 7.068,-2.63 3.183,0 5.715,1.559 6.976,2.876 0.926,0.962 0.891,2.493 -0.071,3.415 C 13.011,4.584 11.48,4.552 10.558,3.59 10.433,3.455 7.415,0.402 2.939,3.836 1.879,4.647 0.362,4.446 -0.449,3.386 -1.261,2.329 -1.057,0.812 0,0" /></g></g></g></g></svg>